<svg width="113" height="23" viewBox="0 0 113 23" fill="none" xmlns="http://www.w3.org/2000/svg">
<path d="M7.45569 0H11.5032V19.0851H21.1728V22.7469H7.45569V0Z" fill="#010202"/>
<path d="M23.7545 0H38.8238V3.66183H27.802V9.25214H38.243V12.914H27.802V19.0851H39.4001V22.7469H23.7545V0Z" fill="#010202"/>
<path d="M42.0952 0H49.9996C51.0932 0 52.1459 0.0998269 53.1623 0.304018C54.1787 0.50821 55.0863 0.857604 55.8758 1.34766C56.6699 1.84226 57.3006 2.50475 57.7725 3.33966C58.2444 4.17458 58.4804 5.23637 58.4804 6.52051C58.4804 8.17219 58.0266 9.55162 57.1146 10.6633C56.2025 11.775 54.9048 12.4511 53.2122 12.6871L59.2518 22.7424H54.3693L49.1012 13.1045H46.1472V22.7424H42.0997V0H42.0952ZM49.2918 9.63783C49.868 9.63783 50.4489 9.61061 51.0251 9.55616C51.6014 9.50171 52.1323 9.37465 52.6178 9.17046C53.0988 8.96627 53.489 8.65771 53.7885 8.24026C54.088 7.8228 54.2377 7.23745 54.2377 6.48875C54.2377 5.82626 54.0971 5.29083 53.8203 4.88244C53.5435 4.47406 53.1759 4.17004 52.7267 3.96585C52.2775 3.76166 51.7784 3.63007 51.2339 3.56201C50.6893 3.49848 50.1584 3.46672 49.6412 3.46672H46.1381V9.63783H49.2872H49.2918Z" fill="#010202"/>
<path d="M61.8655 0H67.2289L78.2507 16.9025H78.3142V0H82.3618V22.7469H77.2207L65.9765 5.2999H65.913V22.7469H61.8655V0Z" fill="#010202"/>
<path d="M94.2457 0H97.7487L107.55 22.7469H102.922L100.802 17.5423H90.9378L88.8823 22.7469H84.3537L94.2457 0ZM99.3868 14.0711L95.8838 4.81892L92.3172 14.0711H99.3868Z" fill="#010202"/>
<path d="M4.04753 5.44971H0V22.747H4.04753V5.44971Z" fill="#010202"/>
<path d="M4.04753 0H0V4.04299H4.04753V0Z" fill="#47B4C9"/>
<path d="M113 18.7041H108.957V22.7471H113V18.7041Z" fill="#47B4C9"/>
</svg>
