<svg xmlns="http://www.w3.org/2000/svg" viewBox="0 0 307 37">
<path fill-rule="evenodd" clip-rule="evenodd" d="M180.381 36.796V6.06h1.8v30.736h-1.8z" fill="#0234AB"/><path d="M211.411 27.663c-.703.186-1.577.417-2.92.42h-.026c-1.341-.003-2.217-.234-2.92-.42-.522-.137-.973-.257-1.504-.257-.973 0-2.045.31-2.541.473.008.046.018.09.028.13l-.004.004s.374 1.548 1.954 2.842c1.581 1.295 4.965 3.61 4.965 3.61l4.357-3.1c1.807-1.44 2.358-2.586 2.527-3.15l.007.004s.06-.163.093-.35c-.509-.165-1.557-.463-2.509-.463-.531 0-.982.12-1.504.257h-.003zM211.411 25.798c-.703.185-1.577.416-2.92.419h-.026c-1.342-.003-2.217-.234-2.92-.42-.522-.137-.973-.257-1.505-.257-1.004 0-2.116.332-2.588.49v.905c.61-.186 1.623-.442 2.588-.442.652 0 1.182.139 1.743.288.687.18 1.465.387 2.695.388 1.23-.001 2.008-.207 2.695-.388.561-.148 1.091-.288 1.743-.288.947 0 1.942.246 2.554.431v-.905c-.489-.161-1.574-.479-2.554-.479-.532 0-.983.12-1.505.258zM215.47 16.877l-4.252 7.355c-.017.004-.034.008-.05.014-.259.068-.532.14-.835.203l4.876-8.434h-.845l-4.959 8.577c-.24.024-.5.04-.785.045l4.985-8.622h-.844l-4.974 8.604a8.985 8.985 0 01-.718-.074l4.932-8.531h-10.549v9.054c.61-.186 1.623-.442 2.588-.442.652 0 1.182.139 1.743.288.687.18 1.465.387 2.695.388 1.23-.001 2.008-.207 2.695-.388.561-.148 1.091-.288 1.743-.288.947 0 1.942.246 2.554.431v-5.322l-2.445 4.228-.149-.001c-.223 0-.434.016-.636.046l3.23-5.587v-1.544zm-9.991 3.5l-.231 1.065-.244-1.065-1.103-.235 1.098-.251.243-1.077.237 1.092 1.071.229-1.071.242zM298.53 34.258c3.263 0 5.886-1.38 7.493-3.716l-1.5-1.031c-1.311 1.882-3.347 3.025-5.993 3.025-4.256 0-7.333-3.21-7.333-7.507 0-4.296 3.077-7.503 7.333-7.503 2.621 0 4.577 1.114 5.753 2.836l1.473-1.058c-1.555-2.307-4.016-3.502-7.226-3.502-5.168 0-9.34 3.793-9.34 9.227 0 5.435 4.172 9.23 9.34 9.23M281.322 15.83H281l-7.544 18.214h1.9l1.203-3.023h9.205l1.231 3.023h2.033l-7.706-18.214zm-4.094 13.548l3.21-8.009c.347-.847.724-2.146.724-2.146s.347 1.299.694 2.146l3.214 8.01h-7.844.002zM263.446 16.015h-4.415v18.029h4.415c6.101 0 9.847-3.552 9.847-9.016s-3.774-9.013-9.847-9.013zm-.134 16.305h-2.353V17.74h2.353c5.379 0 7.948 2.996 7.948 7.29 0 4.293-2.569 7.291-7.948 7.291zM244.581 34.044h11.454v-1.697h-9.526V27.84h8.16v-1.669h-8.16v-8.459h9.15v-1.697h-11.078v18.029zM236.466 15.83h-.322l-4.975 12.832c-.295.742-.562 1.776-.562 1.776s-.243-1.034-.537-1.776l-4.896-12.832h-.322l-5.991 18.214h1.952l3.801-12.01c.24-.769.507-1.963.507-1.963s.294 1.194.589 1.964l4.738 12.195h.32l4.739-12.195c.295-.77.588-1.964.588-1.964s.267 1.168.508 1.964l3.826 12.009h2.06l-6.021-18.214h-.002zM56.907 12.157h5.166l5.413 17.16h.376l5.374-17.16h5.29L71.07 33.983h-6.665l-7.498-21.826zM104.878 12.157h4.914v2.5h.376c.957-1.667 2.956-3.039 5.87-3.039 4.79 0 7.831 3.581 7.831 8.08v14.285h-4.913V20.86c0-2.709-1.914-4.58-4.414-4.58-2.708 0-4.746 2.08-4.746 4.832v12.87h-4.914V12.157h-.004zM127.183 27.441V6.034h4.956v6.123h6.165v4.332h-6.165v10.913c0 1.543.623 2.21 2.123 2.21h3.79v4.375h-3.833c-4.246 0-7.036-1.919-7.036-6.542v-.004zM140.148 23.112c0-6.87 5.037-11.494 10.912-11.494 6.665 0 10.702 4.833 10.702 11.328v1.375h-16.534c.043 3.666 2.414 5.996 5.998 5.996 2.414 0 4.708-1.248 5.499-3.666l4.499 1.08c-1.415 4.543-5.414 6.79-9.955 6.79-6.665 0-11.121-4.747-11.121-11.413v.004zm16.619-2.375c-.248-2.957-2.708-4.833-5.703-4.833-2.996 0-5.499 2.21-5.79 4.833h11.493zM28.45 8.111c-1.388-2.546-3.395-4.553-5.976-5.976C19.898.717 16.845 0 13.4 0H0v10.002l8.385 6.654a.423.423 0 010 .667L.023 23.96l-.023.02v10.002h13.403c3.445 0 6.499-.717 9.075-2.136 2.577-1.418 4.588-3.437 5.975-5.999 1.384-2.561 2.09-5.541 2.09-8.859 0-3.317-.702-6.336-2.09-8.882l-.003.004zM5.266 25.317l9.087-7.215c.686-.547.69-1.585.008-2.136L5.265 8.661V4.69h8.242c3.685 0 6.576 1.136 8.602 3.376 2 2.212 3.015 5.216 3.015 8.924 0 3.71-1.015 6.712-3.015 8.925-2.022 2.24-4.917 3.376-8.602 3.376H5.266v-3.973zM49.331 12.16h5.065v21.823H49.33v-2.287c-2.077 1.942-4.309 2.915-6.7 2.915-3.018 0-5.51-1.09-7.482-3.271-1.957-2.225-2.933-5.003-2.933-8.336s.976-5.995 2.933-8.177c1.957-2.182 4.406-3.27 7.347-3.27 2.538 0 4.816 1.046 6.831 3.134v-2.53h.004zM37.37 23.005c0 2.093.562 3.794 1.682 5.108 1.151 1.329 2.6 1.996 4.348 1.996 1.867 0 3.375-.644 4.526-1.927 1.15-1.329 1.724-3.015 1.724-5.065 0-2.05-.573-3.732-1.724-5.065-1.151-1.298-2.643-1.949-4.48-1.949-1.732 0-3.181.659-4.347 1.973-1.151 1.329-1.725 2.972-1.725 4.929h-.003zM95.838 12.16h5.065v21.823h-5.065v-2.287c-2.077 1.942-4.309 2.915-6.7 2.915-3.018 0-5.51-1.09-7.482-3.271-1.957-2.225-2.933-5.003-2.933-8.336s.976-5.995 2.933-8.177c1.957-2.182 4.406-3.27 7.347-3.27 2.538 0 4.816 1.046 6.831 3.134v-2.53h.004zM83.872 23.005c0 2.093.562 3.794 1.682 5.108 1.151 1.329 2.6 1.996 4.348 1.996 1.867 0 3.375-.644 4.526-1.927 1.15-1.329 1.724-3.015 1.724-5.065 0-2.05-.573-3.732-1.724-5.065-1.151-1.298-2.643-1.949-4.48-1.949-1.732 0-3.181.659-4.347 1.973-1.151 1.329-1.725 2.972-1.725 4.929h-.004z" fill="#0234AB"/>
</svg>